<svg width="45" height="13" viewBox="0 0 45 13" fill="none" xmlns="http://www.w3.org/2000/svg">
<path d="M0.174561 4.13574C0.174561 3.22559 0.494873 2.4502 1.1355 1.80957C1.78003 1.16895 2.55542 0.848633 3.46167 0.848633C4.36792 0.848633 5.14331 1.16895 5.78784 1.80957C6.42847 2.4502 6.74878 3.22559 6.74878 4.13574C6.74878 5.04199 6.42847 5.81543 5.78784 6.45605C5.14331 7.09668 4.36792 7.41699 3.46167 7.41699H1.2937V8.65918C1.2937 8.81152 1.23901 8.94238 1.12964 9.05176C1.02026 9.16113 0.887451 9.21582 0.731201 9.21582C0.578857 9.21582 0.447998 9.16113 0.338623 9.05176C0.229248 8.94238 0.174561 8.81152 0.174561 8.65918V4.13574ZM1.2937 6.30371H3.46167C4.05933 6.30371 4.57104 6.09082 4.99683 5.66504C5.4187 5.24316 5.62964 4.7334 5.62964 4.13574C5.62964 3.53418 5.4187 3.02246 4.99683 2.60059C4.57104 2.1748 4.05933 1.96191 3.46167 1.96191C2.86401 1.96191 2.35229 2.1748 1.92651 2.60059C1.50464 3.02246 1.2937 3.53418 1.2937 4.13574V6.30371ZM10.6453 2.52441C11.571 2.52441 12.3601 2.85059 13.0125 3.50293C13.6648 4.15527 13.991 4.94434 13.991 5.87012V8.65332C13.991 8.80957 13.9363 8.94238 13.8269 9.05176C13.7175 9.16113 13.5867 9.21582 13.4343 9.21582C13.2781 9.21582 13.1472 9.16113 13.0417 9.05176C12.9324 8.94238 12.8777 8.80957 12.8777 8.65332V8.36035C12.241 8.93066 11.4968 9.21582 10.6453 9.21582C9.72339 9.21582 8.93433 8.8877 8.27808 8.23145C7.62573 7.5791 7.29956 6.79199 7.29956 5.87012C7.29956 4.94434 7.62573 4.15527 8.27808 3.50293C8.93433 2.85059 9.72339 2.52441 10.6453 2.52441ZM12.2214 4.28809C11.7878 3.85449 11.2625 3.6377 10.6453 3.6377C10.0281 3.6377 9.50269 3.85449 9.06909 4.28809C8.63159 4.72559 8.41284 5.25293 8.41284 5.87012C8.41284 6.4834 8.63159 7.00879 9.06909 7.44629C9.50269 7.87988 10.0281 8.09668 10.6453 8.09668C11.2625 8.09668 11.7878 7.87988 12.2214 7.44629C12.6589 7.00879 12.8777 6.4834 12.8777 5.87012C12.8777 5.25293 12.6589 4.72559 12.2214 4.28809ZM21.8542 8.71191C21.8542 9.63379 21.5281 10.4229 20.8757 11.0791C20.2234 11.7314 19.4343 12.0576 18.5085 12.0576C17.8484 12.0576 17.2429 11.8779 16.6921 11.5186C16.1375 11.1592 15.7253 10.6768 15.4558 10.0713C15.3933 9.93457 15.3894 9.79395 15.4441 9.64941C15.4988 9.50488 15.5964 9.40137 15.7371 9.33887C15.8777 9.27637 16.0183 9.27246 16.1589 9.32715C16.3035 9.38184 16.407 9.47949 16.4695 9.62012C16.6492 10.0225 16.9246 10.3447 17.2957 10.5869C17.6628 10.8252 18.0671 10.9443 18.5085 10.9443C19.1257 10.9443 19.6511 10.7256 20.0847 10.2881C20.5222 9.85449 20.741 9.3291 20.741 8.71191V8.36035C20.1042 8.93066 19.3601 9.21582 18.5085 9.21582C17.5867 9.21582 16.7976 8.8877 16.1414 8.23145C15.489 7.5791 15.1628 6.79199 15.1628 5.87012V3.08105C15.1628 2.9248 15.2175 2.79199 15.3269 2.68262C15.4363 2.57715 15.5671 2.52441 15.7195 2.52441C15.8757 2.52441 16.0066 2.57715 16.1121 2.68262C16.2214 2.79199 16.2761 2.9248 16.2761 3.08105V5.87012C16.2761 6.4834 16.4949 7.00879 16.9324 7.44629C17.366 7.87988 17.8914 8.09668 18.5085 8.09668C19.1257 8.09668 19.6511 7.87988 20.0847 7.44629C20.5222 7.00879 20.741 6.4834 20.741 5.87012V3.08105C20.741 2.9248 20.7957 2.79199 20.905 2.68262C21.0105 2.57715 21.1414 2.52441 21.2976 2.52441C21.45 2.52441 21.5808 2.57715 21.6902 2.68262C21.7996 2.79199 21.8542 2.9248 21.8542 3.08105V8.71191Z" fill="white"/>
<path d="M26.3718 9.21582C25.45 9.21582 24.6609 8.8877 24.0046 8.23145C23.3523 7.5791 23.0261 6.79199 23.0261 5.87012V1.40527C23.0261 1.25293 23.0808 1.12207 23.1902 1.0127C23.2996 0.90332 23.4304 0.848633 23.5828 0.848633C23.739 0.848633 23.8699 0.90332 23.9753 1.0127C24.0847 1.12207 24.1394 1.25293 24.1394 1.40527V3.37402C24.7761 2.80762 25.5203 2.52441 26.3718 2.52441C27.2976 2.52441 28.0867 2.85059 28.739 3.50293C29.3914 4.15527 29.7175 4.94434 29.7175 5.87012C29.7175 6.79199 29.3914 7.5791 28.739 8.23145C28.0867 8.8877 27.2976 9.21582 26.3718 9.21582ZM24.7957 7.44629C25.2292 7.87988 25.7546 8.09668 26.3718 8.09668C26.989 8.09668 27.5144 7.87988 27.948 7.44629C28.3855 7.00879 28.6042 6.4834 28.6042 5.87012C28.6042 5.25293 28.3855 4.72559 27.948 4.28809C27.5144 3.85449 26.989 3.6377 26.3718 3.6377C25.7546 3.6377 25.2292 3.85449 24.7957 4.28809C24.3582 4.72559 24.1394 5.25293 24.1394 5.87012C24.1394 6.4834 24.3582 7.00879 24.7957 7.44629ZM33.6492 3.6377C33.032 3.6377 32.5066 3.85449 32.073 4.28809C31.6355 4.72559 31.4167 5.25293 31.4167 5.87012C31.4167 6.4834 31.6355 7.00879 32.073 7.44629C32.5066 7.87988 33.032 8.09668 33.6492 8.09668C34.2664 8.09668 34.7917 7.87988 35.2253 7.44629C35.6628 7.00879 35.8816 6.4834 35.8816 5.87012C35.8816 5.25293 35.6628 4.72559 35.2253 4.28809C34.7917 3.85449 34.2664 3.6377 33.6492 3.6377ZM31.282 3.50293C31.9382 2.85059 32.7273 2.52441 33.6492 2.52441C34.575 2.52441 35.364 2.85059 36.0164 3.50293C36.6687 4.15527 36.9949 4.94434 36.9949 5.87012C36.9949 6.79199 36.6687 7.5791 36.0164 8.23145C35.364 8.8877 34.575 9.21582 33.6492 9.21582C32.7273 9.21582 31.9382 8.8877 31.282 8.23145C30.6296 7.5791 30.3035 6.79199 30.3035 5.87012C30.3035 4.94434 30.6296 4.15527 31.282 3.50293ZM37.8738 3.08105C37.8738 2.9248 37.9285 2.79199 38.0378 2.68262C38.1472 2.57715 38.2781 2.52441 38.4304 2.52441C38.5867 2.52441 38.7175 2.57715 38.823 2.68262C38.9324 2.79199 38.9871 2.9248 38.9871 3.08105V3.09863C38.9871 3.71582 39.2058 4.24121 39.6433 4.6748C40.0769 5.1084 40.6003 5.32715 41.2136 5.33105H41.2253C41.8386 5.32715 42.3621 5.1084 42.7957 4.6748C43.2332 4.24121 43.4519 3.71582 43.4519 3.09863V3.08105C43.4519 2.9248 43.5066 2.79199 43.616 2.68262C43.7214 2.57715 43.8523 2.52441 44.0085 2.52441C44.1609 2.52441 44.2917 2.57715 44.4011 2.68262C44.5105 2.79199 44.5652 2.9248 44.5652 3.08105V3.09863C44.5652 4.02051 44.239 4.80957 43.5867 5.46582C43.4382 5.61035 43.2781 5.74121 43.1062 5.8584C44.0789 6.46777 44.5652 7.39355 44.5652 8.63574V8.65332C44.5652 8.80957 44.5105 8.94238 44.4011 9.05176C44.2917 9.16113 44.1609 9.21582 44.0085 9.21582C43.8523 9.21582 43.7214 9.16113 43.616 9.05176C43.5066 8.94238 43.4519 8.80957 43.4519 8.65332V8.63574C43.4519 8.13184 43.3269 7.7002 43.0769 7.34082C42.8503 7.0127 42.5417 6.77246 42.1511 6.62012C41.8621 6.50293 41.5535 6.44434 41.2253 6.44434H41.2136C40.8933 6.44434 40.5925 6.49902 40.3113 6.6084L40.2878 6.62012C39.8972 6.77246 39.5886 7.0127 39.3621 7.34082C39.1121 7.7002 38.9871 8.13184 38.9871 8.63574V8.65332C38.9871 8.80957 38.9324 8.94238 38.823 9.05176C38.7175 9.16113 38.5867 9.21582 38.4304 9.21582C38.2781 9.21582 38.1472 9.16113 38.0378 9.05176C37.9285 8.94238 37.8738 8.80957 37.8738 8.65332V8.63574C37.8738 7.39355 38.3601 6.46777 39.3328 5.8584C39.1609 5.74121 39.0007 5.61035 38.8523 5.46582C38.2 4.80957 37.8738 4.02051 37.8738 3.09863V3.08105Z" fill="#00A3FF"/>
</svg>
