<svg width="69" height="24" viewBox="0 0 69 24" fill="none" xmlns="http://www.w3.org/2000/svg">
<path d="M6.13224 9.6H7.33224L4.30824 18H2.74824L0.0362441 9.6H1.23624L2.96424 15.036C3.07624 15.404 3.17624 15.796 3.26424 16.212C3.36024 16.62 3.42024 16.884 3.44424 17.004H3.66024C3.68424 16.884 3.74824 16.62 3.85224 16.212C3.96424 15.796 4.08424 15.404 4.21224 15.036L6.13224 9.6ZM10.5033 18.144C9.76734 18.144 9.22734 17.94 8.88334 17.532C8.53934 17.116 8.36734 16.484 8.36734 15.636V11.808H9.56734V15.624C9.56734 16.152 9.65134 16.568 9.81934 16.872C9.99534 17.176 10.3073 17.328 10.7553 17.328C11.3393 17.328 11.8473 17.176 12.2793 16.872V11.808H13.4793V16.788L13.7553 18.096H13.1673C13.0633 18.096 12.9673 18.072 12.8793 18.024C12.7993 17.984 12.7273 17.904 12.6633 17.784L12.4953 17.472H12.3033C12.0553 17.736 11.8033 17.912 11.5473 18C11.2913 18.096 10.9433 18.144 10.5033 18.144ZM16.7389 16.164C16.5789 16.348 16.4069 16.536 16.2229 16.728C16.0389 16.92 15.9189 17.044 15.8629 17.1L15.9469 17.28C16.0189 17.264 16.1749 17.232 16.4149 17.184C16.6549 17.136 16.8629 17.112 17.0389 17.112H19.8589V18H14.6149V17.112L17.6149 13.644C17.7749 13.46 17.9509 13.272 18.1429 13.08C18.3349 12.88 18.4589 12.752 18.5149 12.696L18.4069 12.504C18.3749 12.512 18.3029 12.532 18.1909 12.564C18.0789 12.596 17.9349 12.628 17.7589 12.66C17.5909 12.684 17.4189 12.696 17.2429 12.696H14.9749V11.808H19.7389V12.696L16.7389 16.164ZM23.1713 18.144C22.4353 18.144 21.8953 17.94 21.5513 17.532C21.2073 17.116 21.0353 16.484 21.0353 15.636V11.808H22.2353V15.624C22.2353 16.152 22.3193 16.568 22.4873 16.872C22.6633 17.176 22.9753 17.328 23.4233 17.328C24.0073 17.328 24.5153 17.176 24.9473 16.872V11.808H26.1473V16.788L26.4233 18.096H25.8353C25.7313 18.096 25.6353 18.072 25.5473 18.024C25.4673 17.984 25.3953 17.904 25.3313 17.784L25.1633 17.472H24.9713C24.7233 17.736 24.4713 17.912 24.2153 18C23.9593 18.096 23.6113 18.144 23.1713 18.144ZM32.9349 16.524C32.9349 16.796 32.9629 16.992 33.0189 17.112C33.0749 17.224 33.1989 17.308 33.3909 17.364L33.2229 18.084C33.2149 18.092 33.1829 18.104 33.1269 18.12C33.0789 18.136 33.0109 18.144 32.9229 18.144C32.6909 18.136 32.5149 18.096 32.3949 18.024C32.2749 17.96 32.1589 17.828 32.0469 17.628L31.8669 17.304H31.6749C31.4589 17.592 31.2109 17.804 30.9309 17.94C30.6509 18.076 30.3109 18.144 29.9109 18.144C29.2949 18.144 28.8069 17.984 28.4469 17.664C28.0869 17.336 27.9069 16.868 27.9069 16.26C27.9069 15.636 28.1069 15.172 28.5069 14.868C28.9069 14.564 29.5309 14.38 30.3789 14.316L31.7469 14.208V13.812C31.7469 13.332 31.6429 12.992 31.4349 12.792C31.2269 12.584 30.8429 12.48 30.2829 12.48C29.8749 12.48 29.3109 12.568 28.5909 12.744L28.3749 12.036C28.6469 11.932 28.9909 11.844 29.4069 11.772C29.8229 11.7 30.1829 11.664 30.4869 11.664C31.2949 11.664 31.9029 11.828 32.3109 12.156C32.7269 12.476 32.9349 12.992 32.9349 13.704V16.524ZM30.5949 15.036C29.6189 15.108 29.1309 15.496 29.1309 16.2C29.1309 16.952 29.5069 17.328 30.2589 17.328C30.6829 17.328 31.0349 17.228 31.3149 17.028C31.6029 16.82 31.7469 16.484 31.7469 16.02V14.952L30.5949 15.036ZM36.1923 9.12V18H34.9923V9.12H36.1923Z" fill="white"/>
<path d="M43.7723 14.064C43.8923 14.08 44.0123 14.092 44.1323 14.1C44.2523 14.108 44.3683 14.112 44.4803 14.112C44.7523 14.112 45.0043 14.072 45.2363 13.992C45.4763 13.912 45.6803 13.792 45.8483 13.632C46.0243 13.472 46.1603 13.276 46.2563 13.044C46.3523 12.812 46.4003 12.54 46.4003 12.228C46.4003 11.604 46.2123 11.136 45.8363 10.824C45.4683 10.512 44.9843 10.356 44.3843 10.356H43.7723V14.064ZM41.1923 18V17.448L42.2963 17.184V10.416L41.1923 10.152V9.6H44.3843C46.7363 9.6 47.9123 10.476 47.9123 12.228C47.9123 13.116 47.6043 13.78 46.9883 14.22C46.3803 14.652 45.5763 14.868 44.5763 14.868C44.2963 14.868 44.0283 14.848 43.7723 14.808V17.184L45.2363 17.448V18H41.1923ZM48.3577 18V17.484L49.3777 17.244V9.372H48.3577V8.856L50.2777 8.4H50.8177V17.244L51.8377 17.484V18H48.3577ZM52.2461 12.516V12H54.6941V16.14C54.6941 16.94 55.0381 17.34 55.7261 17.34C56.2701 17.34 56.7821 17.136 57.2621 16.728V12.756L56.4821 12.516V12H58.6901V17.22H59.6261V17.616C59.4341 17.784 59.2181 17.92 58.9781 18.024C58.7461 18.128 58.5141 18.18 58.2821 18.18C58.0981 18.18 57.9341 18.144 57.7901 18.072C57.6541 18.008 57.5501 17.924 57.4781 17.82C57.4061 17.716 57.3541 17.632 57.3221 17.568C57.2901 17.496 57.2701 17.436 57.2621 17.388C56.6301 17.916 55.9501 18.18 55.2221 18.18C54.5821 18.18 54.0941 18.008 53.7581 17.664C53.4301 17.32 53.2661 16.864 53.2661 16.296V12.756L52.2461 12.516ZM60.4476 17.904V16.188H60.9996L61.4556 17.448C61.7356 17.496 62.0476 17.52 62.3916 17.52C62.9036 17.52 63.2636 17.456 63.4716 17.328C63.6876 17.192 63.7956 16.964 63.7956 16.644C63.7956 16.396 63.6796 16.192 63.4476 16.032C63.2156 15.864 62.8156 15.668 62.2476 15.444C61.7116 15.22 61.2956 14.956 60.9996 14.652C60.7036 14.34 60.5556 13.948 60.5556 13.476C60.5556 12.94 60.7796 12.532 61.2276 12.252C61.6836 11.964 62.2756 11.82 63.0036 11.82C63.6356 11.82 64.2076 11.896 64.7196 12.048V13.68H64.2156L63.8196 12.552C63.5876 12.488 63.3156 12.456 63.0036 12.456C62.5716 12.456 62.2676 12.524 62.0916 12.66C61.9236 12.788 61.8396 12.984 61.8396 13.248C61.8396 13.4 61.8956 13.536 62.0076 13.656C62.1196 13.776 62.2436 13.876 62.3796 13.956C62.5236 14.028 62.7516 14.132 63.0636 14.268C63.7916 14.572 64.3116 14.88 64.6236 15.192C64.9436 15.496 65.1036 15.892 65.1036 16.38C65.1036 16.964 64.8676 17.412 64.3956 17.724C63.9236 18.028 63.3076 18.18 62.5476 18.18C61.7956 18.18 61.0956 18.088 60.4476 17.904Z" fill="#FF0000"/>
<path d="M41.3402 20.2H42.2002C42.6376 20.2 42.9616 20.3213 43.1722 20.564C43.3856 20.8067 43.4922 21.152 43.4922 21.6C43.4922 22.0453 43.3882 22.3907 43.1802 22.636C42.9722 22.8787 42.6456 23 42.2002 23H41.3402V20.2ZM42.2122 22.68C42.5269 22.68 42.7482 22.5853 42.8762 22.396C43.0069 22.204 43.0722 21.9387 43.0722 21.6C43.0722 21.2587 43.0056 20.9907 42.8722 20.796C42.7416 20.6013 42.5189 20.504 42.2042 20.504H41.7402V22.68H42.2122ZM44.1744 21.188C44.3291 20.988 44.5544 20.888 44.8504 20.888C45.4264 20.888 45.7144 21.228 45.7144 21.908V22.056H44.3664C44.3664 22.528 44.5544 22.764 44.9304 22.764C45.0424 22.764 45.1451 22.756 45.2384 22.74C45.3344 22.7213 45.4411 22.692 45.5584 22.652L45.6384 22.892C45.4011 22.996 45.1504 23.048 44.8864 23.048C44.5771 23.048 44.3424 22.9507 44.1824 22.756C44.0224 22.5613 43.9424 22.2987 43.9424 21.968C43.9424 21.6453 44.0198 21.3853 44.1744 21.188ZM44.4784 21.328C44.4118 21.44 44.3744 21.6 44.3664 21.808H45.3144C45.3144 21.6027 45.2811 21.444 45.2144 21.332C45.1478 21.2173 45.0251 21.16 44.8464 21.16C44.6704 21.16 44.5478 21.216 44.4784 21.328ZM47.6388 22.42C47.6388 22.6333 47.5668 22.792 47.4228 22.896C47.2788 22.9973 47.0974 23.048 46.8788 23.048C46.6308 23.048 46.3828 22.9867 46.1348 22.864L46.2388 22.616C46.3588 22.6667 46.4628 22.7067 46.5508 22.736C46.6388 22.7627 46.7334 22.776 46.8348 22.776C46.9601 22.776 47.0601 22.7533 47.1348 22.708C47.2121 22.66 47.2508 22.5827 47.2508 22.476C47.2508 22.4013 47.2294 22.3413 47.1868 22.296C47.1441 22.2507 47.0574 22.2013 46.9268 22.148L46.6748 22.048C46.5361 21.9947 46.4268 21.924 46.3468 21.836C46.2668 21.748 46.2268 21.6333 46.2268 21.492C46.2268 21.3053 46.2974 21.1587 46.4388 21.052C46.5801 20.9427 46.7574 20.888 46.9708 20.888C47.1574 20.888 47.3628 20.9307 47.5868 21.016L47.5028 21.268C47.3134 21.196 47.1321 21.16 46.9588 21.16C46.7134 21.16 46.5908 21.2533 46.5908 21.44C46.5908 21.5147 46.6161 21.5733 46.6668 21.616C46.7174 21.656 46.8081 21.704 46.9388 21.76L47.2108 21.88C47.3574 21.944 47.4654 22.0173 47.5348 22.1C47.6041 22.18 47.6388 22.2867 47.6388 22.42ZM48.1865 20.236C48.1865 20.1667 48.2105 20.108 48.2585 20.06C48.3065 20.012 48.3652 19.988 48.4345 19.988C48.5038 19.988 48.5625 20.012 48.6105 20.06C48.6585 20.108 48.6825 20.1667 48.6825 20.236C48.6825 20.3053 48.6585 20.364 48.6105 20.412C48.5625 20.46 48.5038 20.484 48.4345 20.484C48.3652 20.484 48.3065 20.46 48.2585 20.412C48.2105 20.364 48.1865 20.3053 48.1865 20.236ZM48.2345 20.936H48.6345V23H48.2345V20.936ZM50.5772 23.068C50.5798 23.0013 50.5878 22.936 50.6012 22.872C50.6172 22.8053 50.6278 22.7627 50.6332 22.744L50.5692 22.708C50.5052 22.82 50.4212 22.9053 50.3172 22.964C50.2132 23.02 50.1025 23.048 49.9852 23.048C49.7292 23.048 49.5278 22.9533 49.3812 22.764C49.2345 22.572 49.1612 22.308 49.1612 21.972C49.1612 21.6307 49.2425 21.3653 49.4052 21.176C49.5678 20.984 49.8052 20.888 50.1172 20.888C50.3145 20.888 50.5985 20.928 50.9692 21.008V23.092C50.9692 23.2547 50.9292 23.3947 50.8492 23.512C50.7692 23.632 50.6612 23.7227 50.5252 23.784C50.3892 23.848 50.2385 23.88 50.0732 23.88C49.7718 23.88 49.4958 23.82 49.2452 23.7L49.3372 23.444C49.3612 23.4547 49.4145 23.476 49.4972 23.508C49.5798 23.54 49.6598 23.564 49.7372 23.58C49.8172 23.5987 49.8958 23.608 49.9732 23.608C50.1625 23.608 50.3078 23.5587 50.4092 23.46C50.5132 23.3613 50.5692 23.2307 50.5772 23.068ZM50.0932 22.776C50.2238 22.776 50.3358 22.7413 50.4292 22.672C50.5225 22.6027 50.5692 22.4907 50.5692 22.336V21.208C50.4652 21.1867 50.3878 21.1733 50.3372 21.168C50.2892 21.1627 50.2172 21.16 50.1212 21.16C49.9265 21.16 49.7878 21.2307 49.7052 21.372C49.6252 21.5133 49.5852 21.7133 49.5852 21.972C49.5852 22.1427 49.5972 22.2853 49.6212 22.4C49.6452 22.5147 49.6932 22.6067 49.7652 22.676C49.8398 22.7427 49.9492 22.776 50.0932 22.776ZM51.7455 20.904C51.7802 20.904 51.8108 20.912 51.8375 20.928C51.8668 20.9413 51.8922 20.968 51.9135 21.008L51.9695 21.112H52.0335C52.1162 21.024 52.1962 20.9653 52.2735 20.936C52.3508 20.904 52.4562 20.888 52.5895 20.888C52.8695 20.888 53.0735 20.9547 53.2015 21.088C53.3295 21.2213 53.3935 21.4333 53.3935 21.724V23H52.9935V21.728C52.9935 21.5467 52.9628 21.4067 52.9015 21.308C52.8402 21.2093 52.7215 21.16 52.5455 21.16C52.4335 21.16 52.3375 21.1733 52.2575 21.2C52.1802 21.224 52.1082 21.2613 52.0415 21.312V23H51.6415V21.34L51.5495 20.904H51.7455ZM55.163 22.536C55.3016 22.5973 55.4323 22.6453 55.555 22.68C55.6776 22.7147 55.811 22.732 55.955 22.732C56.091 22.732 56.2043 22.6947 56.295 22.62C56.3883 22.5453 56.435 22.444 56.435 22.316C56.435 22.2067 56.3963 22.112 56.319 22.032C56.2443 21.952 56.139 21.88 56.003 21.816L55.595 21.624C55.435 21.5493 55.311 21.4573 55.223 21.348C55.1376 21.2387 55.095 21.0973 55.095 20.924C55.095 20.764 55.139 20.6253 55.227 20.508C55.3176 20.3907 55.4336 20.3027 55.575 20.244C55.719 20.1827 55.871 20.152 56.031 20.152C56.1883 20.152 56.3203 20.1667 56.427 20.196C56.5363 20.2227 56.6603 20.264 56.799 20.32L56.691 20.604C56.4323 20.508 56.2096 20.46 56.023 20.46C55.6923 20.46 55.527 20.5867 55.527 20.84C55.527 20.9333 55.5536 21.012 55.607 21.076C55.663 21.1373 55.7496 21.196 55.867 21.252L56.347 21.488C56.7016 21.664 56.879 21.9067 56.879 22.216C56.879 22.408 56.8323 22.5667 56.739 22.692C56.6483 22.8173 56.5323 22.908 56.391 22.964C56.2496 23.02 56.1016 23.048 55.947 23.048C55.787 23.048 55.6323 23.0293 55.483 22.992C55.3363 22.9547 55.187 22.9027 55.035 22.836L55.163 22.536ZM57.5225 20.664C57.5358 20.5867 57.5598 20.5293 57.5945 20.492C57.6291 20.4547 57.6785 20.436 57.7425 20.436H57.8705V20.936H58.4625V21.212H57.8705V22.42C57.8705 22.532 57.8905 22.6173 57.9305 22.676C57.9731 22.7347 58.0625 22.764 58.1985 22.764C58.2811 22.764 58.3758 22.7533 58.4825 22.732L58.5345 22.996C58.5051 23.0067 58.4478 23.0173 58.3625 23.028C58.2798 23.0413 58.2105 23.048 58.1545 23.048C57.9011 23.048 57.7238 22.9933 57.6225 22.884C57.5211 22.772 57.4705 22.592 57.4705 22.344V21.212H57.1665V21.072L57.4705 20.936L57.5225 20.664ZM59.6966 23.048C59.4513 23.048 59.2713 22.98 59.1566 22.844C59.0419 22.7053 58.9846 22.4947 58.9846 22.212V20.936H59.3846V22.208C59.3846 22.384 59.4126 22.5227 59.4686 22.624C59.5273 22.7253 59.6313 22.776 59.7806 22.776C59.9753 22.776 60.1446 22.7253 60.2886 22.624V20.936H60.6886V22.596L60.7806 23.032H60.5846C60.5499 23.032 60.5179 23.024 60.4886 23.008C60.4619 22.9947 60.4379 22.968 60.4166 22.928L60.3606 22.824H60.2966C60.2139 22.912 60.1299 22.9707 60.0446 23C59.9593 23.032 59.8433 23.048 59.6966 23.048ZM62.0991 23.048C61.8165 23.048 61.6031 22.9547 61.4591 22.768C61.3178 22.5813 61.2471 22.3173 61.2471 21.976C61.2471 21.6347 61.3298 21.368 61.4951 21.176C61.6605 20.984 61.8965 20.888 62.2031 20.888C62.2671 20.888 62.3325 20.896 62.3991 20.912C62.4685 20.9253 62.5245 20.94 62.5671 20.956C62.6125 20.9693 62.6418 20.9787 62.6551 20.984V20.04H63.0551V22.588L63.1511 23.032H62.9591C62.8845 23.032 62.8271 22.9973 62.7871 22.928L62.7311 22.824H62.6671C62.6058 22.9093 62.5311 22.968 62.4431 23C62.3551 23.032 62.2405 23.048 62.0991 23.048ZM61.6711 21.972C61.6711 22.2253 61.7085 22.4227 61.7831 22.564C61.8605 22.7053 62.0005 22.776 62.2031 22.776C62.2965 22.776 62.3818 22.7613 62.4591 22.732C62.5365 22.7 62.6018 22.6613 62.6551 22.616V21.24C62.6445 21.2347 62.6191 21.2267 62.5791 21.216C62.5418 21.2027 62.4898 21.1907 62.4231 21.18C62.3565 21.1667 62.2831 21.16 62.2031 21.16C62.0085 21.16 61.8711 21.2307 61.7911 21.372C61.7111 21.5133 61.6711 21.7133 61.6711 21.972ZM63.6552 20.236C63.6552 20.1667 63.6792 20.108 63.7272 20.06C63.7752 20.012 63.8339 19.988 63.9032 19.988C63.9726 19.988 64.0312 20.012 64.0792 20.06C64.1272 20.108 64.1512 20.1667 64.1512 20.236C64.1512 20.3053 64.1272 20.364 64.0792 20.412C64.0312 20.46 63.9726 20.484 63.9032 20.484C63.8339 20.484 63.7752 20.46 63.7272 20.412C63.6792 20.364 63.6552 20.3053 63.6552 20.236ZM63.7032 20.936H64.1032V23H63.7032V20.936ZM66.5619 21.968C66.5619 22.312 66.4819 22.5787 66.3219 22.768C66.1619 22.9547 65.9193 23.048 65.5939 23.048C65.2713 23.048 65.0299 22.9547 64.8699 22.768C64.7099 22.5787 64.6299 22.312 64.6299 21.968C64.6299 21.624 64.7099 21.3587 64.8699 21.172C65.0299 20.9827 65.2713 20.888 65.5939 20.888C65.9193 20.888 66.1619 20.9827 66.3219 21.172C66.4819 21.3587 66.5619 21.624 66.5619 21.968ZM65.5979 22.776C65.9579 22.776 66.1379 22.5067 66.1379 21.968C66.1379 21.4293 65.9579 21.16 65.5979 21.16C65.4033 21.16 65.2633 21.2347 65.1779 21.384C65.0953 21.5307 65.0539 21.7253 65.0539 21.968C65.0539 22.2107 65.0953 22.4067 65.1779 22.556C65.2633 22.7027 65.4033 22.776 65.5979 22.776ZM68.506 22.42C68.506 22.6333 68.434 22.792 68.29 22.896C68.146 22.9973 67.9646 23.048 67.746 23.048C67.498 23.048 67.25 22.9867 67.002 22.864L67.106 22.616C67.226 22.6667 67.33 22.7067 67.418 22.736C67.506 22.7627 67.6006 22.776 67.702 22.776C67.8273 22.776 67.9273 22.7533 68.002 22.708C68.0793 22.66 68.118 22.5827 68.118 22.476C68.118 22.4013 68.0966 22.3413 68.054 22.296C68.0113 22.2507 67.9246 22.2013 67.794 22.148L67.542 22.048C67.4033 21.9947 67.294 21.924 67.214 21.836C67.134 21.748 67.094 21.6333 67.094 21.492C67.094 21.3053 67.1646 21.1587 67.306 21.052C67.4473 20.9427 67.6246 20.888 67.838 20.888C68.0246 20.888 68.23 20.9307 68.454 21.016L68.37 21.268C68.1806 21.196 67.9993 21.16 67.826 21.16C67.5806 21.16 67.458 21.2533 67.458 21.44C67.458 21.5147 67.4833 21.5733 67.534 21.616C67.5846 21.656 67.6753 21.704 67.806 21.76L68.078 21.88C68.2246 21.944 68.3326 22.0173 68.402 22.1C68.4713 22.18 68.506 22.2867 68.506 22.42Z" fill="white"/>
</svg>
